<svg width="104" height="104" viewBox="0 0 104 104" fill="none" xmlns="http://www.w3.org/2000/svg">
<rect y="25.603" width="10" height="10" transform="rotate(-18.1937 0 25.603)" fill="#F2F5FE" fill-opacity="0.08"/>
<rect x="5.62012" y="42.7031" width="10" height="10" transform="rotate(-18.1937 5.62012 42.7031)" fill="#F2F5FE" fill-opacity="0.08"/>
<rect x="11.2402" y="59.8032" width="10" height="10" transform="rotate(-18.1937 11.2402 59.8032)" fill="#F2F5FE" fill-opacity="0.08"/>
<rect x="16.8604" y="76.9033" width="10" height="10" transform="rotate(-18.1937 16.8604 76.9033)" fill="#F2F5FE" fill-opacity="0.08"/>
<rect x="22.4805" y="94.0034" width="10" height="10" transform="rotate(-18.1937 22.4805 94.0034)" fill="#F2F5FE" fill-opacity="0.08"/>
<rect x="17.1006" y="19.9829" width="10" height="10" transform="rotate(-18.1937 17.1006 19.9829)" fill="#F2F5FE" fill-opacity="0.08"/>
<rect x="22.7207" y="37.083" width="10" height="10" transform="rotate(-18.1937 22.7207 37.083)" fill="#F2F5FE" fill-opacity="0.08"/>
<rect x="28.3408" y="54.1831" width="10" height="10" transform="rotate(-18.1937 28.3408 54.1831)" fill="#F2F5FE" fill-opacity="0.08"/>
<rect x="33.9609" y="71.2832" width="10" height="10" transform="rotate(-18.1937 33.9609 71.2832)" fill="#F2F5FE" fill-opacity="0.08"/>
<rect x="39.5811" y="88.3833" width="10" height="10" transform="rotate(-18.1937 39.5811 88.3833)" fill="#F2F5FE" fill-opacity="0.08"/>
<rect x="34.2002" y="14.3628" width="10" height="10" transform="rotate(-18.1937 34.2002 14.3628)" fill="#F2F5FE" fill-opacity="0.08"/>
<rect x="39.8203" y="31.4629" width="10" height="10" transform="rotate(-18.1937 39.8203 31.4629)" fill="#F2F5FE" fill-opacity="0.08"/>
<rect x="45.4404" y="48.563" width="10" height="10" transform="rotate(-18.1937 45.4404 48.563)" fill="#F2F5FE" fill-opacity="0.08"/>
<rect x="51.0605" y="65.6631" width="10" height="10" transform="rotate(-18.1937 51.0605 65.6631)" fill="#F2F5FE" fill-opacity="0.08"/>
<rect x="56.6807" y="82.7632" width="10" height="10" transform="rotate(-18.1937 56.6807 82.7632)" fill="#F2F5FE" fill-opacity="0.08"/>
<rect x="51.3008" y="8.74268" width="10" height="10" transform="rotate(-18.1937 51.3008 8.74268)" fill="#F2F5FE" fill-opacity="0.08"/>
<rect x="56.9209" y="25.8428" width="10" height="10" transform="rotate(-18.1937 56.9209 25.8428)" fill="#F2F5FE" fill-opacity="0.08"/>
<rect x="62.541" y="42.9429" width="10" height="10" transform="rotate(-18.1937 62.541 42.9429)" fill="#F2F5FE" fill-opacity="0.08"/>
<rect x="68.1611" y="60.043" width="10" height="10" transform="rotate(-18.1937 68.1611 60.043)" fill="#F2F5FE" fill-opacity="0.08"/>
<rect x="73.7812" y="77.1431" width="10" height="10" transform="rotate(-18.1937 73.7812 77.1431)" fill="#F2F5FE" fill-opacity="0.08"/>
<rect x="68.4004" y="3.12256" width="10" height="10" transform="rotate(-18.1937 68.4004 3.12256)" fill="#F2F5FE" fill-opacity="0.08"/>
<rect x="74.0205" y="20.2227" width="10" height="10" transform="rotate(-18.1937 74.0205 20.2227)" fill="#F2F5FE" fill-opacity="0.08"/>
<rect x="79.6406" y="37.3228" width="10" height="10" transform="rotate(-18.1937 79.6406 37.3228)" fill="#F2F5FE" fill-opacity="0.08"/>
<rect x="85.2607" y="54.4229" width="10" height="10" transform="rotate(-18.1937 85.2607 54.4229)" fill="#F2F5FE" fill-opacity="0.08"/>
<rect x="90.8809" y="71.5229" width="10" height="10" transform="rotate(-18.1937 90.8809 71.5229)" fill="#F2F5FE" fill-opacity="0.08"/>
</svg>
