<svg width="28" height="22" viewBox="0 0 28 22" fill="none" xmlns="http://www.w3.org/2000/svg">
<path d="M23.3333 0.333252H4.66663C3.60576 0.333252 2.58834 0.754679 1.8382 1.50482C1.08805 2.25497 0.666626 3.27239 0.666626 4.33325V17.6666C0.666626 18.7275 1.08805 19.7449 1.8382 20.495C2.58834 21.2452 3.60576 21.6666 4.66663 21.6666H23.3333C24.3942 21.6666 25.4116 21.2452 26.1617 20.495C26.9119 19.7449 27.3333 18.7275 27.3333 17.6666V4.33325C27.3333 3.27239 26.9119 2.25497 26.1617 1.50482C25.4116 0.754679 24.3942 0.333252 23.3333 0.333252ZM23.3333 2.99992L14.6666 8.95992C14.4639 9.07694 14.234 9.13855 14 9.13855C13.7659 9.13855 13.536 9.07694 13.3333 8.95992L4.66663 2.99992H23.3333Z" fill="black"/>
</svg>
