<svg width="24" height="19" viewBox="0 0 24 19" fill="none" xmlns="http://www.w3.org/2000/svg">
<g clip-path="url(#clip0_32_370)">
<path d="M23.4 16.625H0.599984C0.268484 16.625 -1.54721e-05 16.8907 -1.54721e-05 17.2188V18.4062C-1.54721e-05 18.7343 0.268484 19 0.599984 19H23.4C23.7315 19 24 18.7343 24 18.4062V17.2188C24 16.8907 23.7315 16.625 23.4 16.625ZM3.02061 12.6643C3.25611 12.9181 3.58686 13.0621 3.93298 13.0618L8.82823 13.0551C9.21456 13.0546 9.59533 12.9641 9.93973 12.7909L20.8507 7.31166C21.8535 6.80809 22.7524 6.08928 23.364 5.14781C24.0506 4.09094 24.1252 3.32611 23.8541 2.7858C23.5837 2.24512 22.9264 1.84805 21.6697 1.76715C20.5504 1.69516 19.437 1.98684 18.4342 2.41100px4L14.7401 4.34514L6.53886 1.29994C6.44025 1.23421 6.32569 1.19573 6.20702 1.18849C6.08835 1.18124 5.96988 1.2055 5.86386 1.25875L3.39823 2.49709C2.99811 2.69785 2.90136 3.22629 3.20436 3.55582L9.06261 7.19625L5.19223 9.14004L2.47911 7.78666C2.38564 7.74002 2.28239 7.71579 2.17771 7.71592C2.07303 7.71605 1.96984 7.74054 1.87648 7.7874L0.37161 8.54332C-0.0198904 8.74 -0.123015 9.25285 0.162735 9.58535L3.02061 12.6643Z" fill="#9AB3F5"/>
</g>
<defs>
<clipPath id="clip0_32_370">
<rect width="24" height="19" fill="white"/>
</clipPath>
</defs>
</svg>
